{
  "asset": {
    "version": "2.0",
    "generator": "Procedural World Studio 0.1"
  },
  "scene": 0,
  "scenes": [
    {
      "nodes": [
        0
      ]
    }
  ],
  "nodes": [
    {
      "name": "ProceduralWorld",
      "mesh": 0
    }
  ],
  "meshes": [
    {
      "name": "WorldGeometry",
      "primitives": [
        {
          "attributes": {
            "POSITION": 0
          },
          "indices": 1,
          "mode": 4
        }
      ]
    }
  ],
  "buffers": [
    {
      "byteLength": 317424,
      "uri": "data:application/octet-stream;base64,"
    }
  ],
  "bufferViews": [
    {
      "buffer": 0,
      "byteOffset": 0,
      "byteLength": 238068,
      "target": 34962
    },
    {
      "buffer": 0,
      "byteOffset": 238068,
      "byteLength": 79356,
      "target": 34963
    }
  ],
  "accessors": [
    {
      "bufferView": 0,
      "componentType": 5126,
      "count": 19839,
      "type": "VEC3",
      "min": [
        0.0,
        0.0,
        0.0
      ],
      "max": [
        1200.0,
        900.0,
        57.6
      ]
    },
    {
      "bufferView": 1,
      "componentType": 5125,
      "count": 19839,
      "type": "SCALAR"
    }
  ],
  "extras": {
    "featureCount": 816
  }
}
